<?xml version="1.0" encoding="UTF-8" standalone="no"?>
<!DOCTYPE svg PUBLIC "-//W3C//DTD SVG 1.1//EN"
 "http://www.w3.org/Graphics/SVG/1.1/DTD/svg11.dtd">
<!-- Generated by graphviz version 2.40.1 (20161225.0304)
 -->
<!-- Title: %3 Pages: 1 -->
<svg width="899pt" height="260pt"
 viewBox="0.00 0.00 899.44 260.00" xmlns="http://www.w3.org/2000/svg" xmlns:xlink="http://www.w3.org/1999/xlink">
<g id="graph0" class="graph" transform="scale(1 1) rotate(0) translate(4 256)">
<title>%3</title>
<polygon fill="#ffffff" stroke="transparent" points="-4,4 -4,-256 895.4435,-256 895.4435,4 -4,4"/>
<!-- artifact -->
<g id="node1" class="node">
<title>artifact</title>
<g id="a_node1"><a xlink:href="https://protocol.licensezero.com/1.0.0-pre/artifact.json" xlink:title="artifact">
<ellipse fill="none" stroke="#000000" cx="123.5963" cy="-90" rx="35.9954" ry="18"/>
<text text-anchor="middle" x="123.5963" y="-86.3" font-family="Times,serif" font-size="14.00" fill="#000000">artifact</text>
</a>
</g>
</g>
<!-- url -->
<g id="node19" class="node">
<title>url</title>
<g id="a_node19"><a xlink:href="https://protocol.licensezero.com/1.0.0-pre/url.json" xlink:title="url">
<ellipse fill="none" stroke="#000000" cx="206.5963" cy="-18" rx="27" ry="18"/>
<text text-anchor="middle" x="206.5963" y="-14.3" font-family="Times,serif" font-size="14.00" fill="#000000">url</text>
</a>
</g>
</g>
<!-- artifact&#45;&gt;url -->
<g id="edge1" class="edge">
<title>artifact&#45;&gt;url</title>
<path fill="none" stroke="#000000" d="M141.6061,-74.3771C153.53,-64.0335 169.3116,-50.3434 182.3372,-39.0441"/>
<polygon fill="#000000" stroke="#000000" points="184.7717,-41.5656 190.0322,-32.3689 180.1848,-36.2778 184.7717,-41.5656"/>
</g>
<!-- broker -->
<g id="node2" class="node">
<title>broker</title>
<g id="a_node2"><a xlink:href="https://protocol.licensezero.com/1.0.0-pre/broker.json" xlink:title="broker">
<ellipse fill="none" stroke="#000000" cx="369.5963" cy="-90" rx="33.5952" ry="18"/>
<text text-anchor="middle" x="369.5963" y="-86.3" font-family="Times,serif" font-size="14.00" fill="#000000">broker</text>
</a>
</g>
</g>
<!-- jurisdiction -->
<g id="node6" class="node">
<title>jurisdiction</title>
<g id="a_node6"><a xlink:href="https://protocol.licensezero.com/1.0.0-pre/jurisdiction.json" xlink:title="jurisdiction">
<ellipse fill="none" stroke="#000000" cx="527.5963" cy="-18" rx="50.8918" ry="18"/>
<text text-anchor="middle" x="527.5963" y="-14.3" font-family="Times,serif" font-size="14.00" fill="#000000">jurisdiction</text>
</a>
</g>
</g>
<!-- broker&#45;&gt;jurisdiction -->
<g id="edge2" class="edge">
<title>broker&#45;&gt;jurisdiction</title>
<path fill="none" stroke="#000000" d="M395.3334,-78.2717C420.1592,-66.9587 458.1205,-49.6599 487.0166,-36.492"/>
<polygon fill="#000000" stroke="#000000" points="488.7882,-39.531 496.4366,-32.1994 485.8855,-33.1612 488.7882,-39.531"/>
</g>
<!-- name -->
<g id="node10" class="node">
<title>name</title>
<g id="a_node10"><a xlink:href="https://protocol.licensezero.com/1.0.0-pre/name.json" xlink:title="name">
<ellipse fill="none" stroke="#000000" cx="379.5963" cy="-18" rx="30.5947" ry="18"/>
<text text-anchor="middle" x="379.5963" y="-14.3" font-family="Times,serif" font-size="14.00" fill="#000000">name</text>
</a>
</g>
</g>
<!-- broker&#45;&gt;name -->
<g id="edge3" class="edge">
<title>broker&#45;&gt;name</title>
<path fill="none" stroke="#000000" d="M372.1197,-71.8314C373.1892,-64.131 374.461,-54.9743 375.6496,-46.4166"/>
<polygon fill="#000000" stroke="#000000" points="379.1299,-46.7997 377.0389,-36.4133 372.1964,-45.8367 379.1299,-46.7997"/>
</g>
<!-- broker&#45;&gt;url -->
<g id="edge4" class="edge">
<title>broker&#45;&gt;url</title>
<path fill="none" stroke="#000000" d="M343.4075,-78.432C314.9048,-65.8418 269.3127,-45.703 238.6813,-32.1725"/>
<polygon fill="#000000" stroke="#000000" points="239.8639,-28.8687 229.3023,-28.0296 237.0354,-35.2718 239.8639,-28.8687"/>
</g>
<!-- bundle -->
<g id="node3" class="node">
<title>bundle</title>
<g id="a_node3"><a xlink:href="https://protocol.licensezero.com/1.0.0-pre/bundle.json" xlink:title="bundle">
<ellipse fill="none" stroke="#000000" cx="545.5963" cy="-234" rx="34.394" ry="18"/>
<text text-anchor="middle" x="545.5963" y="-230.3" font-family="Times,serif" font-size="14.00" fill="#000000">bundle</text>
</a>
</g>
</g>
<!-- receipt -->
<g id="node14" class="node">
<title>receipt</title>
<g id="a_node14"><a xlink:href="https://protocol.licensezero.com/1.0.0-pre/receipt.json" xlink:title="receipt">
<ellipse fill="none" stroke="#000000" cx="454.5963" cy="-162" rx="34.394" ry="18"/>
<text text-anchor="middle" x="454.5963" y="-158.3" font-family="Times,serif" font-size="14.00" fill="#000000">receipt</text>
</a>
</g>
</g>
<!-- bundle&#45;&gt;receipt -->
<g id="edge5" class="edge">
<title>bundle&#45;&gt;receipt</title>
<path fill="none" stroke="#000000" d="M526.2975,-218.7307C513.3882,-208.5166 496.2101,-194.9252 481.9044,-183.6064"/>
<polygon fill="#000000" stroke="#000000" points="483.8812,-180.7074 473.8672,-177.2473 479.5378,-186.197 483.8812,-180.7074"/>
</g>
<!-- time -->
<g id="node18" class="node">
<title>time</title>
<g id="a_node18"><a xlink:href="https://protocol.licensezero.com/1.0.0-pre/time.json" xlink:title="time">
<ellipse fill="none" stroke="#000000" cx="678.5963" cy="-90" rx="27" ry="18"/>
<text text-anchor="middle" x="678.5963" y="-86.3" font-family="Times,serif" font-size="14.00" fill="#000000">time</text>
</a>
</g>
</g>
<!-- bundle&#45;&gt;time -->
<g id="edge6" class="edge">
<title>bundle&#45;&gt;time</title>
<path fill="none" stroke="#000000" d="M560.5946,-217.7613C584.1915,-192.2128 630.0803,-142.5286 657.155,-113.2147"/>
<polygon fill="#000000" stroke="#000000" points="660.0446,-115.2446 664.2584,-105.5238 654.9023,-110.4952 660.0446,-115.2446"/>
</g>
<!-- currency -->
<g id="node4" class="node">
<title>currency</title>
<g id="a_node4"><a xlink:href="https://protocol.licensezero.com/1.0.0-pre/currency.json" xlink:title="currency">
<ellipse fill="none" stroke="#000000" cx="41.5963" cy="-18" rx="41.6928" ry="18"/>
<text text-anchor="middle" x="41.5963" y="-14.3" font-family="Times,serif" font-size="14.00" fill="#000000">currency</text>
</a>
</g>
</g>
<!-- digest -->
<g id="node5" class="node">
<title>digest</title>
<g id="a_node5"><a xlink:href="https://protocol.licensezero.com/1.0.0-pre/digest.json" xlink:title="digest">
<ellipse fill="none" stroke="#000000" cx="859.5963" cy="-90" rx="31.6951" ry="18"/>
<text text-anchor="middle" x="859.5963" y="-86.3" font-family="Times,serif" font-size="14.00" fill="#000000">digest</text>
</a>
</g>
</g>
<!-- public -->
<g id="node7" class="node">
<title>public</title>
<g id="a_node7"><a xlink:href="https://protocol.licensezero.com/1.0.0-pre/public.json" xlink:title="public">
<ellipse fill="none" stroke="#000000" cx="285.5963" cy="-90" rx="32.4942" ry="18"/>
<text text-anchor="middle" x="285.5963" y="-86.3" font-family="Times,serif" font-size="14.00" fill="#000000">public</text>
</a>
</g>
</g>
<!-- private -->
<g id="node8" class="node">
<title>private</title>
<g id="a_node8"><a xlink:href="https://protocol.licensezero.com/1.0.0-pre/private.json" xlink:title="private">
<ellipse fill="none" stroke="#000000" cx="633.5963" cy="-234" rx="35.194" ry="18"/>
<text text-anchor="middle" x="633.5963" y="-230.3" font-family="Times,serif" font-size="14.00" fill="#000000">private</text>
</a>
</g>
</g>
<!-- ledger -->
<g id="node9" class="node">
<title>ledger</title>
<g id="a_node9"><a xlink:href="https://protocol.licensezero.com/1.0.0-pre/ledger.json" xlink:title="ledger">
<ellipse fill="none" stroke="#000000" cx="766.5963" cy="-162" rx="32.4942" ry="18"/>
<text text-anchor="middle" x="766.5963" y="-158.3" font-family="Times,serif" font-size="14.00" fill="#000000">ledger</text>
</a>
</g>
</g>
<!-- ledger&#45;&gt;digest -->
<g id="edge7" class="edge">
<title>ledger&#45;&gt;digest</title>
<path fill="none" stroke="#000000" d="M785.866,-147.0816C799.4229,-136.5858 817.7478,-122.3989 832.7369,-110.7944"/>
<polygon fill="#000000" stroke="#000000" points="834.9049,-113.5423 840.6695,-104.653 830.6197,-108.0072 834.9049,-113.5423"/>
</g>
<!-- signature -->
<g id="node17" class="node">
<title>signature</title>
<g id="a_node17"><a xlink:href="https://protocol.licensezero.com/1.0.0-pre/signature.json" xlink:title="signature">
<ellipse fill="none" stroke="#000000" cx="766.5963" cy="-90" rx="42.7926" ry="18"/>
<text text-anchor="middle" x="766.5963" y="-86.3" font-family="Times,serif" font-size="14.00" fill="#000000">signature</text>
</a>
</g>
</g>
<!-- ledger&#45;&gt;signature -->
<g id="edge8" class="edge">
<title>ledger&#45;&gt;signature</title>
<path fill="none" stroke="#000000" d="M766.5963,-143.8314C766.5963,-136.131 766.5963,-126.9743 766.5963,-118.4166"/>
<polygon fill="#000000" stroke="#000000" points="770.0964,-118.4132 766.5963,-108.4133 763.0964,-118.4133 770.0964,-118.4132"/>
</g>
<!-- ledger&#45;&gt;time -->
<g id="edge9" class="edge">
<title>ledger&#45;&gt;time</title>
<path fill="none" stroke="#000000" d="M748.3627,-147.0816C735.485,-136.5453 718.0609,-122.2892 703.8474,-110.66"/>
<polygon fill="#000000" stroke="#000000" points="705.8644,-107.788 695.9084,-104.1645 701.4317,-113.2057 705.8644,-107.788"/>
</g>
<!-- offer -->
<g id="node11" class="node">
<title>offer</title>
<g id="a_node11"><a xlink:href="https://protocol.licensezero.com/1.0.0-pre/offer.json" xlink:title="offer">
<ellipse fill="none" stroke="#000000" cx="114.5963" cy="-162" rx="27.8951" ry="18"/>
<text text-anchor="middle" x="114.5963" y="-158.3" font-family="Times,serif" font-size="14.00" fill="#000000">offer</text>
</a>
</g>
</g>
<!-- price -->
<g id="node13" class="node">
<title>price</title>
<g id="a_node13"><a xlink:href="https://protocol.licensezero.com/1.0.0-pre/price.json" xlink:title="price">
<ellipse fill="none" stroke="#000000" cx="41.5963" cy="-90" rx="28.6953" ry="18"/>
<text text-anchor="middle" x="41.5963" y="-86.3" font-family="Times,serif" font-size="14.00" fill="#000000">price</text>
</a>
</g>
</g>
<!-- offer&#45;&gt;price -->
<g id="edge10" class="edge">
<title>offer&#45;&gt;price</title>
<path fill="none" stroke="#000000" d="M99.1149,-146.7307C89.0494,-136.803 75.7488,-123.6847 64.4734,-112.5637"/>
<polygon fill="#000000" stroke="#000000" points="66.6329,-109.7776 57.0554,-105.2473 61.7174,-114.7614 66.6329,-109.7776"/>
</g>
<!-- offer&#45;&gt;url -->
<g id="edge11" class="edge">
<title>offer&#45;&gt;url</title>
<path fill="none" stroke="#000000" d="M131.9266,-147.832C143.486,-137.6841 158.3796,-123.1782 168.5963,-108 181.6217,-88.6492 191.6192,-64.1146 198.0829,-45.5509"/>
<polygon fill="#000000" stroke="#000000" points="201.4505,-46.5167 201.3071,-35.9229 194.8127,-44.2939 201.4505,-46.5167"/>
</g>
<!-- order -->
<g id="node12" class="node">
<title>order</title>
<g id="a_node12"><a xlink:href="https://protocol.licensezero.com/1.0.0-pre/order.json" xlink:title="order">
<ellipse fill="none" stroke="#000000" cx="566.5963" cy="-90" rx="29.4969" ry="18"/>
<text text-anchor="middle" x="566.5963" y="-86.3" font-family="Times,serif" font-size="14.00" fill="#000000">order</text>
</a>
</g>
</g>
<!-- order&#45;&gt;jurisdiction -->
<g id="edge12" class="edge">
<title>order&#45;&gt;jurisdiction</title>
<path fill="none" stroke="#000000" d="M557.1555,-72.5708C552.6243,-64.2055 547.0952,-53.998 542.0501,-44.6839"/>
<polygon fill="#000000" stroke="#000000" points="545.0615,-42.8948 537.2211,-35.7689 538.9065,-46.2288 545.0615,-42.8948"/>
</g>
<!-- price&#45;&gt;currency -->
<g id="edge13" class="edge">
<title>price&#45;&gt;currency</title>
<path fill="none" stroke="#000000" d="M41.5963,-71.8314C41.5963,-64.131 41.5963,-54.9743 41.5963,-46.4166"/>
<polygon fill="#000000" stroke="#000000" points="45.0964,-46.4132 41.5963,-36.4133 38.0964,-46.4133 45.0964,-46.4132"/>
</g>
<!-- receipt&#45;&gt;broker -->
<g id="edge14" class="edge">
<title>receipt&#45;&gt;broker</title>
<path fill="none" stroke="#000000" d="M436.1526,-146.3771C424.2648,-136.3075 408.633,-123.0663 395.5059,-111.947"/>
<polygon fill="#000000" stroke="#000000" points="397.6047,-109.1379 387.712,-105.3451 393.0803,-114.4792 397.6047,-109.1379"/>
</g>
<!-- receipt&#45;&gt;jurisdiction -->
<g id="edge15" class="edge">
<title>receipt&#45;&gt;jurisdiction</title>
<path fill="none" stroke="#000000" d="M486.6453,-154.992C526.4299,-145.5674 590.7502,-127.7006 604.5963,-108 613.7965,-94.9097 611.9791,-86.1949 604.5963,-72 596.9328,-57.2654 583.2027,-45.7146 569.4369,-37.1438"/>
<polygon fill="#000000" stroke="#000000" points="570.8566,-33.9215 560.449,-31.9384 567.3484,-39.9789 570.8566,-33.9215"/>
</g>
<!-- receipt&#45;&gt;public -->
<g id="edge16" class="edge">
<title>receipt&#45;&gt;public</title>
<path fill="none" stroke="#000000" d="M427.579,-150.7355C401.6402,-139.8891 361.3778,-122.9708 326.5963,-108 324.5657,-107.126 322.4804,-106.2241 320.3774,-105.3112"/>
<polygon fill="#000000" stroke="#000000" points="321.7259,-102.0809 311.1605,-101.2914 318.9275,-108.4973 321.7259,-102.0809"/>
</g>
<!-- receipt&#45;&gt;name -->
<g id="edge17" class="edge">
<title>receipt&#45;&gt;name</title>
<path fill="none" stroke="#000000" d="M446.9612,-144.1221C438.9519,-125.7512 425.7246,-96.4603 412.5963,-72 407.5831,-62.6596 401.6612,-52.6892 396.2277,-43.8906"/>
<polygon fill="#000000" stroke="#000000" points="399.0735,-41.8403 390.8008,-35.2211 393.1401,-45.5545 399.0735,-41.8403"/>
</g>
<!-- receipt&#45;&gt;price -->
<g id="edge18" class="edge">
<title>receipt&#45;&gt;price</title>
<path fill="none" stroke="#000000" d="M420.1197,-160.609C352.9818,-157.1286 200.5914,-145.4316 78.5963,-108 76.7012,-107.4185 74.7822,-106.7516 72.8667,-106.0246"/>
<polygon fill="#000000" stroke="#000000" points="74.0175,-102.7104 63.4461,-102.0063 71.271,-109.1491 74.0175,-102.7104"/>
</g>
<!-- seller -->
<g id="node16" class="node">
<title>seller</title>
<g id="a_node16"><a xlink:href="https://protocol.licensezero.com/1.0.0-pre/seller.json" xlink:title="seller">
<ellipse fill="none" stroke="#000000" cx="489.5963" cy="-90" rx="29.795" ry="18"/>
<text text-anchor="middle" x="489.5963" y="-86.3" font-family="Times,serif" font-size="14.00" fill="#000000">seller</text>
</a>
</g>
</g>
<!-- receipt&#45;&gt;seller -->
<g id="edge19" class="edge">
<title>receipt&#45;&gt;seller</title>
<path fill="none" stroke="#000000" d="M463.248,-144.2022C467.3045,-135.8574 472.2219,-125.7417 476.7048,-116.5197"/>
<polygon fill="#000000" stroke="#000000" points="479.9407,-117.8685 481.1649,-107.3446 473.6451,-114.8081 479.9407,-117.8685"/>
</g>
<!-- receipt&#45;&gt;signature -->
<g id="edge20" class="edge">
<title>receipt&#45;&gt;signature</title>
<path fill="none" stroke="#000000" d="M487.7549,-156.5218C537.4891,-147.9891 634.1526,-130.178 714.5963,-108 717.9205,-107.0835 721.3409,-106.0677 724.7645,-104.9987"/>
<polygon fill="#000000" stroke="#000000" points="725.9162,-108.3047 734.3436,-101.8838 723.7514,-101.6478 725.9162,-108.3047"/>
</g>
<!-- receipt&#45;&gt;time -->
<g id="edge21" class="edge">
<title>receipt&#45;&gt;time</title>
<path fill="none" stroke="#000000" d="M485.7448,-154.1004C522.4769,-144.4891 585.1704,-127.1556 637.5963,-108 640.663,-106.8795 643.827,-105.6421 646.9739,-104.3564"/>
<polygon fill="#000000" stroke="#000000" points="648.4089,-107.5497 656.2485,-100.4229 645.6757,-101.1053 648.4089,-107.5497"/>
</g>
<!-- receipt&#45;&gt;url -->
<g id="edge22" class="edge">
<title>receipt&#45;&gt;url</title>
<path fill="none" stroke="#000000" d="M421.1828,-157.0897C368.8939,-148.8123 270.9695,-130.7367 244.5963,-108 226.2187,-92.1564 216.5139,-65.9138 211.5278,-45.8429"/>
<polygon fill="#000000" stroke="#000000" points="214.9247,-44.9944 209.3297,-35.9974 208.0929,-46.5198 214.9247,-44.9944"/>
</g>
<!-- register -->
<g id="node15" class="node">
<title>register</title>
<g id="a_node15"><a xlink:href="https://protocol.licensezero.com/1.0.0-pre/register.json" xlink:title="register">
<ellipse fill="none" stroke="#000000" cx="678.5963" cy="-162" rx="37.0935" ry="18"/>
<text text-anchor="middle" x="678.5963" y="-158.3" font-family="Times,serif" font-size="14.00" fill="#000000">register</text>
</a>
</g>
</g>
<!-- register&#45;&gt;time -->
<g id="edge23" class="edge">
<title>register&#45;&gt;time</title>
<path fill="none" stroke="#000000" d="M678.5963,-143.8314C678.5963,-136.131 678.5963,-126.9743 678.5963,-118.4166"/>
<polygon fill="#000000" stroke="#000000" points="682.0964,-118.4132 678.5963,-108.4133 675.0964,-118.4133 682.0964,-118.4132"/>
</g>
<!-- seller&#45;&gt;jurisdiction -->
<g id="edge24" class="edge">
<title>seller&#45;&gt;jurisdiction</title>
<path fill="none" stroke="#000000" d="M498.795,-72.5708C503.2101,-64.2055 508.5974,-53.998 513.5132,-44.6839"/>
<polygon fill="#000000" stroke="#000000" points="516.646,-46.2464 518.2183,-35.7689 510.4553,-42.9791 516.646,-46.2464"/>
</g>
</g>
</svg>
