<?xml version="1.0" encoding="UTF-8" standalone="no"?>
<!DOCTYPE svg PUBLIC "-//W3C//DTD SVG 1.1//EN"
 "http://www.w3.org/Graphics/SVG/1.1/DTD/svg11.dtd">
<!-- Generated by graphviz version 2.40.1 (20161225.0304)
 -->
<!-- Title: %3 Pages: 1 -->
<svg width="768pt" height="260pt"
 viewBox="0.00 0.00 768.44 260.00" xmlns="http://www.w3.org/2000/svg" xmlns:xlink="http://www.w3.org/1999/xlink">
<g id="graph0" class="graph" transform="scale(1 1) rotate(0) translate(4 256)">
<title>%3</title>
<polygon fill="#ffffff" stroke="transparent" points="-4,4 -4,-256 764.4435,-256 764.4435,4 -4,4"/>
<!-- artifact -->
<g id="node1" class="node">
<title>artifact</title>
<g id="a_node1"><a xlink:href="https://protocol.licensezero.com/1.0.0-pre/artifact.json" xlink:title="artifact">
<ellipse fill="none" stroke="#000000" cx="406.5963" cy="-234" rx="35.9954" ry="18"/>
<text text-anchor="middle" x="406.5963" y="-230.3" font-family="Times,serif" font-size="14.00" fill="#000000">artifact</text>
</a>
</g>
</g>
<!-- broker -->
<g id="node2" class="node">
<title>broker</title>
<g id="a_node2"><a xlink:href="https://protocol.licensezero.com/1.0.0-pre/broker.json" xlink:title="broker">
<ellipse fill="none" stroke="#000000" cx="204.5963" cy="-90" rx="33.5952" ry="18"/>
<text text-anchor="middle" x="204.5963" y="-86.3" font-family="Times,serif" font-size="14.00" fill="#000000">broker</text>
</a>
</g>
</g>
<!-- jurisdiction -->
<g id="node6" class="node">
<title>jurisdiction</title>
<g id="a_node6"><a xlink:href="https://protocol.licensezero.com/1.0.0-pre/jurisdiction.json" xlink:title="jurisdiction">
<ellipse fill="none" stroke="#000000" cx="367.5963" cy="-18" rx="50.8918" ry="18"/>
<text text-anchor="middle" x="367.5963" y="-14.3" font-family="Times,serif" font-size="14.00" fill="#000000">jurisdiction</text>
</a>
</g>
</g>
<!-- broker&#45;&gt;jurisdiction -->
<g id="edge1" class="edge">
<title>broker&#45;&gt;jurisdiction</title>
<path fill="none" stroke="#000000" d="M230.7851,-78.432C256.5269,-67.0613 296.2076,-49.5337 326.2179,-36.2776"/>
<polygon fill="#000000" stroke="#000000" points="327.8586,-39.3791 335.5918,-32.137 325.0302,-32.976 327.8586,-39.3791"/>
</g>
<!-- name -->
<g id="node9" class="node">
<title>name</title>
<g id="a_node9"><a xlink:href="https://protocol.licensezero.com/1.0.0-pre/name.json" xlink:title="name">
<ellipse fill="none" stroke="#000000" cx="204.5963" cy="-18" rx="30.5947" ry="18"/>
<text text-anchor="middle" x="204.5963" y="-14.3" font-family="Times,serif" font-size="14.00" fill="#000000">name</text>
</a>
</g>
</g>
<!-- broker&#45;&gt;name -->
<g id="edge2" class="edge">
<title>broker&#45;&gt;name</title>
<path fill="none" stroke="#000000" d="M204.5963,-71.8314C204.5963,-64.131 204.5963,-54.9743 204.5963,-46.4166"/>
<polygon fill="#000000" stroke="#000000" points="208.0964,-46.4132 204.5963,-36.4133 201.0964,-46.4133 208.0964,-46.4132"/>
</g>
<!-- url -->
<g id="node18" class="node">
<title>url</title>
<g id="a_node18"><a xlink:href="https://protocol.licensezero.com/1.0.0-pre/url.json" xlink:title="url">
<ellipse fill="none" stroke="#000000" cx="128.5963" cy="-18" rx="27" ry="18"/>
<text text-anchor="middle" x="128.5963" y="-14.3" font-family="Times,serif" font-size="14.00" fill="#000000">url</text>
</a>
</g>
</g>
<!-- broker&#45;&gt;url -->
<g id="edge3" class="edge">
<title>broker&#45;&gt;url</title>
<path fill="none" stroke="#000000" d="M187.7294,-74.0209C177.111,-63.9613 163.2646,-50.8437 151.6401,-39.8309"/>
<polygon fill="#000000" stroke="#000000" points="154.0448,-37.2879 144.3782,-32.9512 149.2306,-42.3696 154.0448,-37.2879"/>
</g>
<!-- bundle -->
<g id="node3" class="node">
<title>bundle</title>
<g id="a_node3"><a xlink:href="https://protocol.licensezero.com/1.0.0-pre/bundle.json" xlink:title="bundle">
<ellipse fill="none" stroke="#000000" cx="494.5963" cy="-234" rx="34.394" ry="18"/>
<text text-anchor="middle" x="494.5963" y="-230.3" font-family="Times,serif" font-size="14.00" fill="#000000">bundle</text>
</a>
</g>
</g>
<!-- receipt -->
<g id="node13" class="node">
<title>receipt</title>
<g id="a_node13"><a xlink:href="https://protocol.licensezero.com/1.0.0-pre/receipt.json" xlink:title="receipt">
<ellipse fill="none" stroke="#000000" cx="310.5963" cy="-162" rx="34.394" ry="18"/>
<text text-anchor="middle" x="310.5963" y="-158.3" font-family="Times,serif" font-size="14.00" fill="#000000">receipt</text>
</a>
</g>
</g>
<!-- bundle&#45;&gt;receipt -->
<g id="edge4" class="edge">
<title>bundle&#45;&gt;receipt</title>
<path fill="none" stroke="#000000" d="M467.8112,-222.6384C462.4528,-220.4076 456.855,-218.107 451.5963,-216 416.7705,-202.0459 376.8129,-186.8159 348.3473,-176.0983"/>
<polygon fill="#000000" stroke="#000000" points="349.3773,-172.7464 338.7852,-172.505 346.9149,-179.299 349.3773,-172.7464"/>
</g>
<!-- time -->
<g id="node17" class="node">
<title>time</title>
<g id="a_node17"><a xlink:href="https://protocol.licensezero.com/1.0.0-pre/time.json" xlink:title="time">
<ellipse fill="none" stroke="#000000" cx="651.5963" cy="-90" rx="27" ry="18"/>
<text text-anchor="middle" x="651.5963" y="-86.3" font-family="Times,serif" font-size="14.00" fill="#000000">time</text>
</a>
</g>
</g>
<!-- bundle&#45;&gt;time -->
<g id="edge5" class="edge">
<title>bundle&#45;&gt;time</title>
<path fill="none" stroke="#000000" d="M527.4077,-228.1521C571.5876,-219.5335 646.5347,-202.0336 662.5963,-180 675.783,-161.9103 670.9244,-136.1453 664,-116.8148"/>
<polygon fill="#000000" stroke="#000000" points="667.1993,-115.3868 660.2753,-107.3674 660.6871,-117.9543 667.1993,-115.3868"/>
</g>
<!-- currency -->
<g id="node4" class="node">
<title>currency</title>
<g id="a_node4"><a xlink:href="https://protocol.licensezero.com/1.0.0-pre/currency.json" xlink:title="currency">
<ellipse fill="none" stroke="#000000" cx="41.5963" cy="-18" rx="41.6928" ry="18"/>
<text text-anchor="middle" x="41.5963" y="-14.3" font-family="Times,serif" font-size="14.00" fill="#000000">currency</text>
</a>
</g>
</g>
<!-- digest -->
<g id="node5" class="node">
<title>digest</title>
<g id="a_node5"><a xlink:href="https://protocol.licensezero.com/1.0.0-pre/digest.json" xlink:title="digest">
<ellipse fill="none" stroke="#000000" cx="728.5963" cy="-90" rx="31.6951" ry="18"/>
<text text-anchor="middle" x="728.5963" y="-86.3" font-family="Times,serif" font-size="14.00" fill="#000000">digest</text>
</a>
</g>
</g>
<!-- key -->
<g id="node7" class="node">
<title>key</title>
<g id="a_node7"><a xlink:href="https://protocol.licensezero.com/1.0.0-pre/key.json" xlink:title="key">
<ellipse fill="none" stroke="#000000" cx="283.5963" cy="-90" rx="27" ry="18"/>
<text text-anchor="middle" x="283.5963" y="-86.3" font-family="Times,serif" font-size="14.00" fill="#000000">key</text>
</a>
</g>
</g>
<!-- ledger -->
<g id="node8" class="node">
<title>ledger</title>
<g id="a_node8"><a xlink:href="https://protocol.licensezero.com/1.0.0-pre/ledger.json" xlink:title="ledger">
<ellipse fill="none" stroke="#000000" cx="621.5963" cy="-162" rx="32.4942" ry="18"/>
<text text-anchor="middle" x="621.5963" y="-158.3" font-family="Times,serif" font-size="14.00" fill="#000000">ledger</text>
</a>
</g>
</g>
<!-- ledger&#45;&gt;digest -->
<g id="edge6" class="edge">
<title>ledger&#45;&gt;digest</title>
<path fill="none" stroke="#000000" d="M642.481,-147.9468C658.6834,-137.0442 681.3394,-121.799 699.3465,-109.6821"/>
<polygon fill="#000000" stroke="#000000" points="701.4217,-112.5044 707.7643,-104.0178 697.5137,-106.6968 701.4217,-112.5044"/>
</g>
<!-- signature -->
<g id="node16" class="node">
<title>signature</title>
<g id="a_node16"><a xlink:href="https://protocol.licensezero.com/1.0.0-pre/signature.json" xlink:title="signature">
<ellipse fill="none" stroke="#000000" cx="563.5963" cy="-90" rx="42.7926" ry="18"/>
<text text-anchor="middle" x="563.5963" y="-86.3" font-family="Times,serif" font-size="14.00" fill="#000000">signature</text>
</a>
</g>
</g>
<!-- ledger&#45;&gt;signature -->
<g id="edge7" class="edge">
<title>ledger&#45;&gt;signature</title>
<path fill="none" stroke="#000000" d="M608.1442,-145.3008C600.9284,-136.3433 591.8893,-125.1223 583.8424,-115.1331"/>
<polygon fill="#000000" stroke="#000000" points="586.3772,-112.7005 577.3783,-107.1086 580.926,-117.0919 586.3772,-112.7005"/>
</g>
<!-- ledger&#45;&gt;time -->
<g id="edge8" class="edge">
<title>ledger&#45;&gt;time</title>
<path fill="none" stroke="#000000" d="M629.012,-144.2022C632.4525,-135.9452 636.6153,-125.9545 640.425,-116.8112"/>
<polygon fill="#000000" stroke="#000000" points="643.754,-117.9215 644.3694,-107.3446 637.2924,-115.2292 643.754,-117.9215"/>
</g>
<!-- offer -->
<g id="node10" class="node">
<title>offer</title>
<g id="a_node10"><a xlink:href="https://protocol.licensezero.com/1.0.0-pre/offer.json" xlink:title="offer">
<ellipse fill="none" stroke="#000000" cx="44.5963" cy="-162" rx="27.8951" ry="18"/>
<text text-anchor="middle" x="44.5963" y="-158.3" font-family="Times,serif" font-size="14.00" fill="#000000">offer</text>
</a>
</g>
</g>
<!-- price -->
<g id="node12" class="node">
<title>price</title>
<g id="a_node12"><a xlink:href="https://protocol.licensezero.com/1.0.0-pre/price.json" xlink:title="price">
<ellipse fill="none" stroke="#000000" cx="44.5963" cy="-90" rx="28.6953" ry="18"/>
<text text-anchor="middle" x="44.5963" y="-86.3" font-family="Times,serif" font-size="14.00" fill="#000000">price</text>
</a>
</g>
</g>
<!-- offer&#45;&gt;price -->
<g id="edge9" class="edge">
<title>offer&#45;&gt;price</title>
<path fill="none" stroke="#000000" d="M44.5963,-143.8314C44.5963,-136.131 44.5963,-126.9743 44.5963,-118.4166"/>
<polygon fill="#000000" stroke="#000000" points="48.0964,-118.4132 44.5963,-108.4133 41.0964,-118.4133 48.0964,-118.4132"/>
</g>
<!-- order -->
<g id="node11" class="node">
<title>order</title>
<g id="a_node11"><a xlink:href="https://protocol.licensezero.com/1.0.0-pre/order.json" xlink:title="order">
<ellipse fill="none" stroke="#000000" cx="473.5963" cy="-90" rx="29.4969" ry="18"/>
<text text-anchor="middle" x="473.5963" y="-86.3" font-family="Times,serif" font-size="14.00" fill="#000000">order</text>
</a>
</g>
</g>
<!-- order&#45;&gt;jurisdiction -->
<g id="edge10" class="edge">
<title>order&#45;&gt;jurisdiction</title>
<path fill="none" stroke="#000000" d="M453.6585,-76.4574C438.4032,-66.0952 417.0631,-51.6001 399.4499,-39.6364"/>
<polygon fill="#000000" stroke="#000000" points="401.3846,-36.7195 391.1458,-33.9959 397.4514,-42.51 401.3846,-36.7195"/>
</g>
<!-- price&#45;&gt;currency -->
<g id="edge11" class="edge">
<title>price&#45;&gt;currency</title>
<path fill="none" stroke="#000000" d="M43.8393,-71.8314C43.5184,-64.131 43.1369,-54.9743 42.7803,-46.4166"/>
<polygon fill="#000000" stroke="#000000" points="46.2769,-46.2589 42.3635,-36.4133 39.283,-46.5503 46.2769,-46.2589"/>
</g>
<!-- receipt&#45;&gt;broker -->
<g id="edge12" class="edge">
<title>receipt&#45;&gt;broker</title>
<path fill="none" stroke="#000000" d="M289.4004,-147.6028C273.657,-136.9092 251.9725,-122.1801 234.4721,-110.293"/>
<polygon fill="#000000" stroke="#000000" points="235.9943,-107.0959 225.7555,-104.3723 232.0611,-112.8864 235.9943,-107.0959"/>
</g>
<!-- receipt&#45;&gt;jurisdiction -->
<g id="edge13" class="edge">
<title>receipt&#45;&gt;jurisdiction</title>
<path fill="none" stroke="#000000" d="M317.5856,-144.3428C327.3185,-119.7545 345.0532,-74.9511 356.5764,-45.8397"/>
<polygon fill="#000000" stroke="#000000" points="359.9438,-46.8422 360.37,-36.256 353.4351,-44.2658 359.9438,-46.8422"/>
</g>
<!-- receipt&#45;&gt;key -->
<g id="edge14" class="edge">
<title>receipt&#45;&gt;key</title>
<path fill="none" stroke="#000000" d="M303.9222,-144.2022C300.8487,-136.0064 297.1347,-126.1024 293.7268,-117.0145"/>
<polygon fill="#000000" stroke="#000000" points="296.9821,-115.7274 290.1937,-107.593 290.4278,-118.1853 296.9821,-115.7274"/>
</g>
<!-- receipt&#45;&gt;name -->
<g id="edge15" class="edge">
<title>receipt&#45;&gt;name</title>
<path fill="none" stroke="#000000" d="M278.7578,-154.9607C239.235,-145.5023 175.3398,-127.5991 161.5963,-108 146.6538,-86.6911 164.0769,-59.3825 181.0132,-40.4632"/>
<polygon fill="#000000" stroke="#000000" points="183.5866,-42.8358 187.8999,-33.1586 178.4933,-38.0338 183.5866,-42.8358"/>
</g>
<!-- receipt&#45;&gt;price -->
<g id="edge16" class="edge">
<title>receipt&#45;&gt;price</title>
<path fill="none" stroke="#000000" d="M278.1645,-155.4463C234.921,-146.3894 156.206,-128.7884 90.5963,-108 86.5496,-106.7178 82.348,-105.2585 78.2026,-103.7384"/>
<polygon fill="#000000" stroke="#000000" points="79.3228,-100.4199 68.7318,-100.1364 76.8344,-106.9627 79.3228,-100.4199"/>
</g>
<!-- seller -->
<g id="node15" class="node">
<title>seller</title>
<g id="a_node15"><a xlink:href="https://protocol.licensezero.com/1.0.0-pre/seller.json" xlink:title="seller">
<ellipse fill="none" stroke="#000000" cx="396.5963" cy="-90" rx="29.795" ry="18"/>
<text text-anchor="middle" x="396.5963" y="-86.3" font-family="Times,serif" font-size="14.00" fill="#000000">seller</text>
</a>
</g>
</g>
<!-- receipt&#45;&gt;seller -->
<g id="edge17" class="edge">
<title>receipt&#45;&gt;seller</title>
<path fill="none" stroke="#000000" d="M329.257,-146.3771C341.4483,-136.1705 357.5315,-122.7055 370.9226,-111.4943"/>
<polygon fill="#000000" stroke="#000000" points="373.4328,-113.9574 378.8537,-104.8543 368.9393,-108.5901 373.4328,-113.9574"/>
</g>
<!-- receipt&#45;&gt;signature -->
<g id="edge18" class="edge">
<title>receipt&#45;&gt;signature</title>
<path fill="none" stroke="#000000" d="M341.7811,-154.3509C381.4633,-144.4509 452.0109,-126.2918 511.5963,-108 514.7014,-107.0468 517.899,-106.0293 521.1097,-104.9813"/>
<polygon fill="#000000" stroke="#000000" points="522.324,-108.2659 530.7017,-101.7802 520.108,-101.6259 522.324,-108.2659"/>
</g>
<!-- receipt&#45;&gt;time -->
<g id="edge19" class="edge">
<title>receipt&#45;&gt;time</title>
<path fill="none" stroke="#000000" d="M344.776,-159.1848C402.0225,-153.7603 520.3797,-139.4947 615.5963,-108 617.4871,-107.3746 619.403,-106.6654 621.3151,-105.8987"/>
<polygon fill="#000000" stroke="#000000" points="623.0018,-108.9788 630.7091,-101.7092 620.1505,-102.5858 623.0018,-108.9788"/>
</g>
<!-- receipt&#45;&gt;url -->
<g id="edge20" class="edge">
<title>receipt&#45;&gt;url</title>
<path fill="none" stroke="#000000" d="M278.7015,-154.8552C237.769,-145.0726 169.9546,-126.5942 152.5963,-108 137.1403,-91.4436 131.4127,-66.0633 129.3949,-46.4705"/>
<polygon fill="#000000" stroke="#000000" points="132.8677,-45.9788 128.6174,-36.2739 125.888,-46.5111 132.8677,-45.9788"/>
</g>
<!-- register -->
<g id="node14" class="node">
<title>register</title>
<g id="a_node14"><a xlink:href="https://protocol.licensezero.com/1.0.0-pre/register.json" xlink:title="register">
<ellipse fill="none" stroke="#000000" cx="533.5963" cy="-162" rx="37.0935" ry="18"/>
<text text-anchor="middle" x="533.5963" y="-158.3" font-family="Times,serif" font-size="14.00" fill="#000000">register</text>
</a>
</g>
</g>
<!-- register&#45;&gt;time -->
<g id="edge21" class="edge">
<title>register&#45;&gt;time</title>
<path fill="none" stroke="#000000" d="M556.9093,-147.7751C575.7808,-136.2603 602.4547,-119.9847 622.6846,-107.6411"/>
<polygon fill="#000000" stroke="#000000" points="624.7614,-110.474 631.4747,-102.2776 621.1153,-104.4985 624.7614,-110.474"/>
</g>
<!-- seller&#45;&gt;jurisdiction -->
<g id="edge22" class="edge">
<title>seller&#45;&gt;jurisdiction</title>
<path fill="none" stroke="#000000" d="M389.4278,-72.2022C386.1513,-64.0675 382.197,-54.2501 378.5592,-45.2181"/>
<polygon fill="#000000" stroke="#000000" points="381.7656,-43.8107 374.7829,-35.8425 375.2725,-46.4261 381.7656,-43.8107"/>
</g>
</g>
</svg>
