<?xml version="1.0" encoding="UTF-8" standalone="no"?>
<!DOCTYPE svg PUBLIC "-//W3C//DTD SVG 1.1//EN"
 "http://www.w3.org/Graphics/SVG/1.1/DTD/svg11.dtd">
<!-- Generated by graphviz version 2.40.1 (20161225.0304)
 -->
<!-- Title: %3 Pages: 1 -->
<svg width="889pt" height="260pt"
 viewBox="0.00 0.00 889.44 260.00" xmlns="http://www.w3.org/2000/svg" xmlns:xlink="http://www.w3.org/1999/xlink">
<g id="graph0" class="graph" transform="scale(1 1) rotate(0) translate(4 256)">
<title>%3</title>
<polygon fill="#ffffff" stroke="transparent" points="-4,4 -4,-256 885.4435,-256 885.4435,4 -4,4"/>
<!-- artifact -->
<g id="node1" class="node">
<title>artifact</title>
<g id="a_node1"><a xlink:href="https://protocol.licensezero.com/1.0.0-pre/artifact.json" xlink:title="artifact">
<ellipse fill="none" stroke="#000000" cx="123.5963" cy="-90" rx="35.9954" ry="18"/>
<text text-anchor="middle" x="123.5963" y="-86.3" font-family="Times,serif" font-size="14.00" fill="#000000">artifact</text>
</a>
</g>
</g>
<!-- url -->
<g id="node18" class="node">
<title>url</title>
<g id="a_node18"><a xlink:href="https://protocol.licensezero.com/1.0.0-pre/url.json" xlink:title="url">
<ellipse fill="none" stroke="#000000" cx="206.5963" cy="-18" rx="27" ry="18"/>
<text text-anchor="middle" x="206.5963" y="-14.3" font-family="Times,serif" font-size="14.00" fill="#000000">url</text>
</a>
</g>
</g>
<!-- artifact&#45;&gt;url -->
<g id="edge1" class="edge">
<title>artifact&#45;&gt;url</title>
<path fill="none" stroke="#000000" d="M141.6061,-74.3771C153.53,-64.0335 169.3116,-50.3434 182.3372,-39.0441"/>
<polygon fill="#000000" stroke="#000000" points="184.7717,-41.5656 190.0322,-32.3689 180.1848,-36.2778 184.7717,-41.5656"/>
</g>
<!-- broker -->
<g id="node2" class="node">
<title>broker</title>
<g id="a_node2"><a xlink:href="https://protocol.licensezero.com/1.0.0-pre/broker.json" xlink:title="broker">
<ellipse fill="none" stroke="#000000" cx="359.5963" cy="-90" rx="33.5952" ry="18"/>
<text text-anchor="middle" x="359.5963" y="-86.3" font-family="Times,serif" font-size="14.00" fill="#000000">broker</text>
</a>
</g>
</g>
<!-- jurisdiction -->
<g id="node6" class="node">
<title>jurisdiction</title>
<g id="a_node6"><a xlink:href="https://protocol.licensezero.com/1.0.0-pre/jurisdiction.json" xlink:title="jurisdiction">
<ellipse fill="none" stroke="#000000" cx="517.5963" cy="-18" rx="50.8918" ry="18"/>
<text text-anchor="middle" x="517.5963" y="-14.3" font-family="Times,serif" font-size="14.00" fill="#000000">jurisdiction</text>
</a>
</g>
</g>
<!-- broker&#45;&gt;jurisdiction -->
<g id="edge2" class="edge">
<title>broker&#45;&gt;jurisdiction</title>
<path fill="none" stroke="#000000" d="M385.3334,-78.2717C410.1592,-66.9587 448.1205,-49.6599 477.0166,-36.492"/>
<polygon fill="#000000" stroke="#000000" points="478.7882,-39.531 486.4366,-32.1994 475.8855,-33.1612 478.7882,-39.531"/>
</g>
<!-- name -->
<g id="node9" class="node">
<title>name</title>
<g id="a_node9"><a xlink:href="https://protocol.licensezero.com/1.0.0-pre/name.json" xlink:title="name">
<ellipse fill="none" stroke="#000000" cx="369.5963" cy="-18" rx="30.5947" ry="18"/>
<text text-anchor="middle" x="369.5963" y="-14.3" font-family="Times,serif" font-size="14.00" fill="#000000">name</text>
</a>
</g>
</g>
<!-- broker&#45;&gt;name -->
<g id="edge3" class="edge">
<title>broker&#45;&gt;name</title>
<path fill="none" stroke="#000000" d="M362.1197,-71.8314C363.1892,-64.131 364.461,-54.9743 365.6496,-46.4166"/>
<polygon fill="#000000" stroke="#000000" points="369.1299,-46.7997 367.0389,-36.4133 362.1964,-45.8367 369.1299,-46.7997"/>
</g>
<!-- broker&#45;&gt;url -->
<g id="edge4" class="edge">
<title>broker&#45;&gt;url</title>
<path fill="none" stroke="#000000" d="M333.9875,-77.9488C307.543,-65.5043 266.25,-46.0723 237.8871,-32.7251"/>
<polygon fill="#000000" stroke="#000000" points="239.3427,-29.5419 228.8042,-28.4508 236.3621,-35.8757 239.3427,-29.5419"/>
</g>
<!-- bundle -->
<g id="node3" class="node">
<title>bundle</title>
<g id="a_node3"><a xlink:href="https://protocol.licensezero.com/1.0.0-pre/bundle.json" xlink:title="bundle">
<ellipse fill="none" stroke="#000000" cx="535.5963" cy="-234" rx="34.394" ry="18"/>
<text text-anchor="middle" x="535.5963" y="-230.3" font-family="Times,serif" font-size="14.00" fill="#000000">bundle</text>
</a>
</g>
</g>
<!-- receipt -->
<g id="node13" class="node">
<title>receipt</title>
<g id="a_node13"><a xlink:href="https://protocol.licensezero.com/1.0.0-pre/receipt.json" xlink:title="receipt">
<ellipse fill="none" stroke="#000000" cx="444.5963" cy="-162" rx="34.394" ry="18"/>
<text text-anchor="middle" x="444.5963" y="-158.3" font-family="Times,serif" font-size="14.00" fill="#000000">receipt</text>
</a>
</g>
</g>
<!-- bundle&#45;&gt;receipt -->
<g id="edge5" class="edge">
<title>bundle&#45;&gt;receipt</title>
<path fill="none" stroke="#000000" d="M516.2975,-218.7307C503.3882,-208.5166 486.2101,-194.9252 471.9044,-183.6064"/>
<polygon fill="#000000" stroke="#000000" points="473.8812,-180.7074 463.8672,-177.2473 469.5378,-186.197 473.8812,-180.7074"/>
</g>
<!-- time -->
<g id="node17" class="node">
<title>time</title>
<g id="a_node17"><a xlink:href="https://protocol.licensezero.com/1.0.0-pre/time.json" xlink:title="time">
<ellipse fill="none" stroke="#000000" cx="668.5963" cy="-90" rx="27" ry="18"/>
<text text-anchor="middle" x="668.5963" y="-86.3" font-family="Times,serif" font-size="14.00" fill="#000000">time</text>
</a>
</g>
</g>
<!-- bundle&#45;&gt;time -->
<g id="edge6" class="edge">
<title>bundle&#45;&gt;time</title>
<path fill="none" stroke="#000000" d="M550.5946,-217.7613C574.1915,-192.2128 620.0803,-142.5286 647.155,-113.2147"/>
<polygon fill="#000000" stroke="#000000" points="650.0446,-115.2446 654.2584,-105.5238 644.9023,-110.4952 650.0446,-115.2446"/>
</g>
<!-- currency -->
<g id="node4" class="node">
<title>currency</title>
<g id="a_node4"><a xlink:href="https://protocol.licensezero.com/1.0.0-pre/currency.json" xlink:title="currency">
<ellipse fill="none" stroke="#000000" cx="41.5963" cy="-18" rx="41.6928" ry="18"/>
<text text-anchor="middle" x="41.5963" y="-14.3" font-family="Times,serif" font-size="14.00" fill="#000000">currency</text>
</a>
</g>
</g>
<!-- digest -->
<g id="node5" class="node">
<title>digest</title>
<g id="a_node5"><a xlink:href="https://protocol.licensezero.com/1.0.0-pre/digest.json" xlink:title="digest">
<ellipse fill="none" stroke="#000000" cx="849.5963" cy="-90" rx="31.6951" ry="18"/>
<text text-anchor="middle" x="849.5963" y="-86.3" font-family="Times,serif" font-size="14.00" fill="#000000">digest</text>
</a>
</g>
</g>
<!-- key -->
<g id="node7" class="node">
<title>key</title>
<g id="a_node7"><a xlink:href="https://protocol.licensezero.com/1.0.0-pre/key.json" xlink:title="key">
<ellipse fill="none" stroke="#000000" cx="280.5963" cy="-90" rx="27" ry="18"/>
<text text-anchor="middle" x="280.5963" y="-86.3" font-family="Times,serif" font-size="14.00" fill="#000000">key</text>
</a>
</g>
</g>
<!-- ledger -->
<g id="node8" class="node">
<title>ledger</title>
<g id="a_node8"><a xlink:href="https://protocol.licensezero.com/1.0.0-pre/ledger.json" xlink:title="ledger">
<ellipse fill="none" stroke="#000000" cx="756.5963" cy="-162" rx="32.4942" ry="18"/>
<text text-anchor="middle" x="756.5963" y="-158.3" font-family="Times,serif" font-size="14.00" fill="#000000">ledger</text>
</a>
</g>
</g>
<!-- ledger&#45;&gt;digest -->
<g id="edge7" class="edge">
<title>ledger&#45;&gt;digest</title>
<path fill="none" stroke="#000000" d="M775.866,-147.0816C789.4229,-136.5858 807.7478,-122.3989 822.7369,-110.7944"/>
<polygon fill="#000000" stroke="#000000" points="824.9049,-113.5423 830.6695,-104.653 820.6197,-108.0072 824.9049,-113.5423"/>
</g>
<!-- signature -->
<g id="node16" class="node">
<title>signature</title>
<g id="a_node16"><a xlink:href="https://protocol.licensezero.com/1.0.0-pre/signature.json" xlink:title="signature">
<ellipse fill="none" stroke="#000000" cx="756.5963" cy="-90" rx="42.7926" ry="18"/>
<text text-anchor="middle" x="756.5963" y="-86.3" font-family="Times,serif" font-size="14.00" fill="#000000">signature</text>
</a>
</g>
</g>
<!-- ledger&#45;&gt;signature -->
<g id="edge8" class="edge">
<title>ledger&#45;&gt;signature</title>
<path fill="none" stroke="#000000" d="M756.5963,-143.8314C756.5963,-136.131 756.5963,-126.9743 756.5963,-118.4166"/>
<polygon fill="#000000" stroke="#000000" points="760.0964,-118.4132 756.5963,-108.4133 753.0964,-118.4133 760.0964,-118.4132"/>
</g>
<!-- ledger&#45;&gt;time -->
<g id="edge9" class="edge">
<title>ledger&#45;&gt;time</title>
<path fill="none" stroke="#000000" d="M738.3627,-147.0816C725.485,-136.5453 708.0609,-122.2892 693.8474,-110.66"/>
<polygon fill="#000000" stroke="#000000" points="695.8644,-107.788 685.9084,-104.1645 691.4317,-113.2057 695.8644,-107.788"/>
</g>
<!-- offer -->
<g id="node10" class="node">
<title>offer</title>
<g id="a_node10"><a xlink:href="https://protocol.licensezero.com/1.0.0-pre/offer.json" xlink:title="offer">
<ellipse fill="none" stroke="#000000" cx="114.5963" cy="-162" rx="27.8951" ry="18"/>
<text text-anchor="middle" x="114.5963" y="-158.3" font-family="Times,serif" font-size="14.00" fill="#000000">offer</text>
</a>
</g>
</g>
<!-- price -->
<g id="node12" class="node">
<title>price</title>
<g id="a_node12"><a xlink:href="https://protocol.licensezero.com/1.0.0-pre/price.json" xlink:title="price">
<ellipse fill="none" stroke="#000000" cx="41.5963" cy="-90" rx="28.6953" ry="18"/>
<text text-anchor="middle" x="41.5963" y="-86.3" font-family="Times,serif" font-size="14.00" fill="#000000">price</text>
</a>
</g>
</g>
<!-- offer&#45;&gt;price -->
<g id="edge10" class="edge">
<title>offer&#45;&gt;price</title>
<path fill="none" stroke="#000000" d="M99.1149,-146.7307C89.0494,-136.803 75.7488,-123.6847 64.4734,-112.5637"/>
<polygon fill="#000000" stroke="#000000" points="66.6329,-109.7776 57.0554,-105.2473 61.7174,-114.7614 66.6329,-109.7776"/>
</g>
<!-- offer&#45;&gt;url -->
<g id="edge11" class="edge">
<title>offer&#45;&gt;url</title>
<path fill="none" stroke="#000000" d="M131.9266,-147.832C143.486,-137.6841 158.3796,-123.1782 168.5963,-108 181.6217,-88.6492 191.6192,-64.1146 198.0829,-45.5509"/>
<polygon fill="#000000" stroke="#000000" points="201.4505,-46.5167 201.3071,-35.9229 194.8127,-44.2939 201.4505,-46.5167"/>
</g>
<!-- order -->
<g id="node11" class="node">
<title>order</title>
<g id="a_node11"><a xlink:href="https://protocol.licensezero.com/1.0.0-pre/order.json" xlink:title="order">
<ellipse fill="none" stroke="#000000" cx="556.5963" cy="-90" rx="29.4969" ry="18"/>
<text text-anchor="middle" x="556.5963" y="-86.3" font-family="Times,serif" font-size="14.00" fill="#000000">order</text>
</a>
</g>
</g>
<!-- order&#45;&gt;jurisdiction -->
<g id="edge12" class="edge">
<title>order&#45;&gt;jurisdiction</title>
<path fill="none" stroke="#000000" d="M547.1555,-72.5708C542.6243,-64.2055 537.0952,-53.998 532.0501,-44.6839"/>
<polygon fill="#000000" stroke="#000000" points="535.0615,-42.8948 527.2211,-35.7689 528.9065,-46.2288 535.0615,-42.8948"/>
</g>
<!-- price&#45;&gt;currency -->
<g id="edge13" class="edge">
<title>price&#45;&gt;currency</title>
<path fill="none" stroke="#000000" d="M41.5963,-71.8314C41.5963,-64.131 41.5963,-54.9743 41.5963,-46.4166"/>
<polygon fill="#000000" stroke="#000000" points="45.0964,-46.4132 41.5963,-36.4133 38.0964,-46.4133 45.0964,-46.4132"/>
</g>
<!-- receipt&#45;&gt;broker -->
<g id="edge14" class="edge">
<title>receipt&#45;&gt;broker</title>
<path fill="none" stroke="#000000" d="M426.1526,-146.3771C414.2648,-136.3075 398.633,-123.0663 385.5059,-111.947"/>
<polygon fill="#000000" stroke="#000000" points="387.6047,-109.1379 377.712,-105.3451 383.0803,-114.4792 387.6047,-109.1379"/>
</g>
<!-- receipt&#45;&gt;jurisdiction -->
<g id="edge15" class="edge">
<title>receipt&#45;&gt;jurisdiction</title>
<path fill="none" stroke="#000000" d="M476.6453,-154.992C516.4299,-145.5674 580.7502,-127.7006 594.5963,-108 603.7965,-94.9097 601.9791,-86.1949 594.5963,-72 586.9328,-57.2654 573.2027,-45.7146 559.4369,-37.1438"/>
<polygon fill="#000000" stroke="#000000" points="560.8566,-33.9215 550.449,-31.9384 557.3484,-39.9789 560.8566,-33.9215"/>
</g>
<!-- receipt&#45;&gt;key -->
<g id="edge16" class="edge">
<title>receipt&#45;&gt;key</title>
<path fill="none" stroke="#000000" d="M416.9066,-150.9205C390.8288,-140.3444 350.774,-123.734 316.5963,-108 314.8349,-107.1891 313.0324,-106.3425 311.2183,-105.4775"/>
<polygon fill="#000000" stroke="#000000" points="312.7118,-102.3119 302.189,-101.0787 309.646,-108.6049 312.7118,-102.3119"/>
</g>
<!-- receipt&#45;&gt;name -->
<g id="edge17" class="edge">
<title>receipt&#45;&gt;name</title>
<path fill="none" stroke="#000000" d="M436.9612,-144.1221C428.9519,-125.7512 415.7246,-96.4603 402.5963,-72 397.5831,-62.6596 391.6612,-52.6892 386.2277,-43.8906"/>
<polygon fill="#000000" stroke="#000000" points="389.0735,-41.8403 380.8008,-35.2211 383.1401,-45.5545 389.0735,-41.8403"/>
</g>
<!-- receipt&#45;&gt;price -->
<g id="edge18" class="edge">
<title>receipt&#45;&gt;price</title>
<path fill="none" stroke="#000000" d="M410.2723,-160.4319C344.533,-156.6699 196.8828,-144.5425 78.5963,-108 76.7023,-107.4149 74.7842,-106.7451 72.8694,-106.0159"/>
<polygon fill="#000000" stroke="#000000" points="74.0216,-102.7022 63.4506,-101.9916 71.2712,-109.1392 74.0216,-102.7022"/>
</g>
<!-- seller -->
<g id="node15" class="node">
<title>seller</title>
<g id="a_node15"><a xlink:href="https://protocol.licensezero.com/1.0.0-pre/seller.json" xlink:title="seller">
<ellipse fill="none" stroke="#000000" cx="479.5963" cy="-90" rx="29.795" ry="18"/>
<text text-anchor="middle" x="479.5963" y="-86.3" font-family="Times,serif" font-size="14.00" fill="#000000">seller</text>
</a>
</g>
</g>
<!-- receipt&#45;&gt;seller -->
<g id="edge19" class="edge">
<title>receipt&#45;&gt;seller</title>
<path fill="none" stroke="#000000" d="M453.248,-144.2022C457.3045,-135.8574 462.2219,-125.7417 466.7048,-116.5197"/>
<polygon fill="#000000" stroke="#000000" points="469.9407,-117.8685 471.1649,-107.3446 463.6451,-114.8081 469.9407,-117.8685"/>
</g>
<!-- receipt&#45;&gt;signature -->
<g id="edge20" class="edge">
<title>receipt&#45;&gt;signature</title>
<path fill="none" stroke="#000000" d="M477.7549,-156.5218C527.4891,-147.9891 624.1526,-130.178 704.5963,-108 707.9205,-107.0835 711.3409,-106.0677 714.7645,-104.9987"/>
<polygon fill="#000000" stroke="#000000" points="715.9162,-108.3047 724.3436,-101.8838 713.7514,-101.6478 715.9162,-108.3047"/>
</g>
<!-- receipt&#45;&gt;time -->
<g id="edge21" class="edge">
<title>receipt&#45;&gt;time</title>
<path fill="none" stroke="#000000" d="M475.7448,-154.1004C512.4769,-144.4891 575.1704,-127.1556 627.5963,-108 630.663,-106.8795 633.827,-105.6421 636.9739,-104.3564"/>
<polygon fill="#000000" stroke="#000000" points="638.4089,-107.5497 646.2485,-100.4229 635.6757,-101.1053 638.4089,-107.5497"/>
</g>
<!-- receipt&#45;&gt;url -->
<g id="edge22" class="edge">
<title>receipt&#45;&gt;url</title>
<path fill="none" stroke="#000000" d="M411.5418,-156.6805C361.4383,-148.0341 269.4591,-129.6965 244.5963,-108 226.3142,-92.0462 216.5982,-65.8166 211.5836,-45.7786"/>
<polygon fill="#000000" stroke="#000000" points="214.982,-44.9376 209.3694,-35.9516 208.1532,-46.4764 214.982,-44.9376"/>
</g>
<!-- register -->
<g id="node14" class="node">
<title>register</title>
<g id="a_node14"><a xlink:href="https://protocol.licensezero.com/1.0.0-pre/register.json" xlink:title="register">
<ellipse fill="none" stroke="#000000" cx="668.5963" cy="-162" rx="37.0935" ry="18"/>
<text text-anchor="middle" x="668.5963" y="-158.3" font-family="Times,serif" font-size="14.00" fill="#000000">register</text>
</a>
</g>
</g>
<!-- register&#45;&gt;time -->
<g id="edge23" class="edge">
<title>register&#45;&gt;time</title>
<path fill="none" stroke="#000000" d="M668.5963,-143.8314C668.5963,-136.131 668.5963,-126.9743 668.5963,-118.4166"/>
<polygon fill="#000000" stroke="#000000" points="672.0964,-118.4132 668.5963,-108.4133 665.0964,-118.4133 672.0964,-118.4132"/>
</g>
<!-- seller&#45;&gt;jurisdiction -->
<g id="edge24" class="edge">
<title>seller&#45;&gt;jurisdiction</title>
<path fill="none" stroke="#000000" d="M488.795,-72.5708C493.2101,-64.2055 498.5974,-53.998 503.5132,-44.6839"/>
<polygon fill="#000000" stroke="#000000" points="506.646,-46.2464 508.2183,-35.7689 500.4553,-42.9791 506.646,-46.2464"/>
</g>
</g>
</svg>
